<?xml version="1.0" standalone="no"?>
<!DOCTYPE svg PUBLIC "-//W3C//DTD SVG 20010904//EN"
 "http://www.w3.org/TR/2001/REC-SVG-20010904/DTD/svg10.dtd">
<svg version="1.0" xmlns="http://www.w3.org/2000/svg"
 width="231.000000pt" height="231.000000pt" viewBox="0 0 231.000000 231.000000"
 preserveAspectRatio="xMidYMid meet">
<metadata>
Created by potrace 1.11, written by Peter Selinger 2001-2013
</metadata>
<g transform="translate(0.000000,231.000000) scale(0.100000,-0.100000)"
fill="#000000" stroke="none">
<path d="M1100 1920 c-8 -5 -176 -170 -373 -366 -330 -329 -357 -359 -353
-386 5 -30 63 -106 82 -107 26 -2 24 -51 -2 -51 -8 0 -14 -5 -14 -11 0 -5 -4
-8 -8 -5 -5 3 -26 -12 -46 -33 -64 -65 -53 -132 24 -147 16 -4 30 -10 30 -13
0 -4 19 -8 43 -8 58 -1 57 -1 57 -17 0 -25 85 -52 195 -62 65 -7 50 5 237
-176 88 -85 118 -109 129 -102 5 3 9 0 9 -5 0 -14 50 -10 75 6 18 11 663 651
690 685 6 7 10 30 10 51 -1 24 3 37 11 37 22 0 84 61 84 82 0 20 -75 61 -132
72 -16 4 -40 8 -55 11 -16 3 -37 8 -48 10 -11 3 -14 2 -7 -1 6 -3 12 -9 12
-14 0 -13 58 -68 65 -62 3 3 5 -4 5 -16 0 -12 -5 -22 -11 -22 -5 0 -8 -4 -5
-8 5 -8 -53 -58 -64 -55 -3 0 -17 -8 -32 -19 -16 -11 -28 -16 -28 -12 0 4 -9
-1 -20 -11 -11 -10 -20 -15 -20 -12 0 3 -25 -3 -55 -13 -30 -10 -55 -17 -55
-14 0 3 -9 0 -21 -6 -11 -7 -33 -14 -47 -17 -42 -8 -57 -11 -57 -13 0 -1 -11
-3 -25 -5 -26 -4 -60 -11 -88 -19 -9 -3 -33 -7 -52 -10 -39 -6 -65 -12 -150
-31 -14 -3 -38 -8 -55 -11 -16 -2 -44 -9 -62 -13 -17 -5 -34 -6 -37 -3 -3 3
-6 0 -6 -7 0 -7 -7 -11 -15 -8 -8 4 -17 2 -20 -4 -4 -5 -10 -7 -15 -4 -5 3
-11 1 -15 -4 -3 -6 -12 -8 -20 -4 -8 3 -15 1 -15 -4 0 -6 -25 -16 -55 -23 -30
-7 -55 -17 -55 -21 0 -5 -7 -6 -15 -3 -8 4 -15 1 -15 -5 0 -6 -3 -10 -7 -9
-11 3 -57 -13 -63 -22 -3 -5 -14 -10 -25 -12 -11 -1 -29 -13 -41 -26 l-20 -23
-26 23 c-28 24 -31 54 -10 78 43 50 62 76 62 84 0 5 3 6 7 3 3 -4 17 5 30 19
12 14 23 21 23 17 0 -4 7 1 16 12 8 11 17 18 20 17 3 -2 43 15 91 38 47 23 90
43 97 45 6 1 18 5 26 8 67 28 209 75 214 70 3 -4 6 -1 6 5 0 7 6 12 13 12 16
0 243 86 328 124 31 14 60 22 63 19 3 -4 6 -1 6 5 0 7 5 12 11 12 5 0 31 10
57 22 26 12 49 22 52 23 3 0 10 3 15 6 6 4 23 9 38 13 16 4 34 11 40 17 7 5
22 18 34 28 32 26 56 84 41 99 -7 7 -8 12 -3 12 4 0 -4 11 -20 24 -25 22 -77
41 -99 37 -4 -1 -14 4 -22 10 -11 9 -14 9 -14 0 0 -7 -5 -9 -11 -5 -13 8 -78
14 -175 15 l-71 2 -102 108 c-105 111 -130 125 -171 99z m350 -232 c0 -4 12
-8 28 -8 38 0 92 -21 126 -47 16 -13 24 -23 19 -23 -5 0 -10 -6 -10 -13 0 -19
-34 -67 -47 -67 -7 0 -39 30 -72 66 -32 37 -64 72 -71 79 -7 7 -10 15 -8 17 8
8 35 5 35 -4z"/>
</g>
</svg>
