<svg width="49" height="49" viewBox="0 0 49 49" fill="none" xmlns="http://www.w3.org/2000/svg">
<path d="M48.7705 16.3723L39.2672 6.86898C38.9617 6.56331 38.4662 6.56331 38.1604 6.86898L33.4088 11.6206C33.2621 11.7673 33.1797 11.9664 33.1797 12.174C33.1797 12.3815 33.2621 12.5806 33.4088 12.7273L33.8828 13.2013L32.7935 14.2904C32.0864 14.9973 30.9892 15.1902 30.0633 14.77C29.1953 14.376 28.2303 14.1678 27.2726 14.1678C26.1353 14.1678 25.0239 14.4533 24.0365 14.994C23.6247 14.8926 23.202 14.8406 22.7752 14.8406C22.1579 14.8406 21.5517 14.9471 20.9732 15.1574C20.0496 15.4929 19.0596 15.285 18.389 14.6146L16.4331 12.6586L16.666 12.4257C16.8127 12.279 16.8951 12.0799 16.8951 11.8723C16.8951 11.6647 16.8127 11.4657 16.666 11.319L11.9144 6.56733C11.6086 6.26166 11.1133 6.26166 10.8076 6.56733L0.229214 17.1457C-0.0763641 17.4514 -0.0763641 17.9468 0.229214 18.2524L4.98075 23.004C5.12756 23.1509 5.32652 23.2333 5.5342 23.2333C5.74187 23.2333 5.94074 23.1509 6.08765 23.004L6.37102 22.7207L7.75048 24.1001C8.09855 24.4482 8.32929 24.8828 8.41762 25.3568C8.87565 27.8147 10.0528 30.0493 11.8218 31.8192L12.0816 32.079C11.5826 32.6045 11.3081 33.2892 11.3081 34.0165C11.3081 34.7689 11.6012 35.4762 12.1331 36.0082C12.6822 36.5573 13.4033 36.8318 14.1247 36.8318C14.1717 36.8318 14.2185 36.8306 14.2655 36.8282C14.2274 37.5956 14.5008 38.3757 15.0855 38.9606C15.6175 39.4926 16.3249 39.7856 17.0772 39.7856C17.0981 39.7856 17.119 39.7845 17.14 39.784C17.1239 40.5256 17.3975 41.2724 17.9621 41.8372C18.4941 42.3693 19.2015 42.6621 19.9539 42.6621C20.7062 42.6621 21.4135 42.3691 21.9456 41.8372C21.9904 41.7924 22.0326 41.746 22.0738 41.6992C22.3509 41.7957 22.6439 41.8471 22.9401 41.8471C23.6438 41.8471 24.3049 41.5729 24.8007 41.0756C25.0645 40.8118 25.2647 40.5015 25.3951 40.1636L25.4752 40.2437C25.988 40.7566 26.6617 41.0131 27.3353 41.0131C28.009 41.0131 28.6826 40.7566 29.1955 40.2437C29.4681 39.9711 29.6729 39.6493 29.8026 39.2984C30.2617 39.6323 30.8052 39.7995 31.349 39.7995C32.0227 39.7995 32.6967 39.5431 33.21 39.0304C33.7068 38.5336 33.9804 37.8727 33.9804 37.1695C33.9804 36.957 33.955 36.7487 33.9065 36.5472C34.4077 36.4454 34.8682 36.1993 35.2377 35.8293C35.7345 35.3325 36.0081 34.6719 36.0081 33.9692C36.0081 33.4155 35.8376 32.8885 35.5226 32.4465L36.1504 31.8187C37.9399 30.0283 39.1222 27.7657 39.5694 25.2755C39.6443 24.8585 39.8508 24.4712 40.1669 24.1551L42.5018 21.8201L42.9123 22.2306C43.0651 22.3834 43.2654 22.4598 43.4657 22.4598C43.6659 22.4598 43.8663 22.3834 44.0192 22.2306L48.7708 17.4789C48.9175 17.3322 48.9999 17.1332 48.9999 16.9256C48.9999 16.718 48.9172 16.5191 48.7705 16.3723ZM5.5342 21.3441L1.88927 17.6992L11.3609 8.22758L15.0059 11.8725L5.5342 21.3441ZM15.0096 34.9017C14.5218 35.3894 13.728 35.3896 13.2398 34.9017C13.0034 34.6652 12.8732 34.351 12.8732 34.0167C12.8732 33.6825 13.0035 33.3682 13.2399 33.1319C13.4838 32.8879 13.8041 32.7659 14.1247 32.7659C14.4451 32.7659 14.7657 32.8879 15.0095 33.1319C15.4974 33.6198 15.4974 34.4137 15.0096 34.9017ZM17.9618 37.8539C17.7257 38.0904 17.4115 38.2205 17.077 38.2205C16.7428 38.2205 16.4285 38.0902 16.1922 37.8539C15.7042 37.366 15.7042 36.5721 16.1922 36.0841C16.4362 35.8401 16.7565 35.7181 17.0771 35.7181C17.3974 35.7181 17.718 35.8401 17.9618 36.0841C18.4499 36.572 18.4499 37.366 17.9618 37.8539ZM20.8385 40.7305C20.6021 40.9668 20.2879 41.097 19.9537 41.097C19.6194 41.097 19.3051 40.9667 19.0688 40.7305C18.5809 40.2426 18.5809 39.4486 19.0688 38.9606C19.3128 38.7167 19.6331 38.5947 19.9537 38.5947C20.274 38.5947 20.5946 38.7167 20.8385 38.9606C21.3265 39.4486 21.3265 40.2426 20.8385 40.7305ZM34.1304 34.723C33.9292 34.9244 33.6618 35.0353 33.3773 35.0353C33.0929 35.0353 32.8254 34.9244 32.6239 34.7225L25.0318 27.1322C24.7259 26.8266 24.2306 26.8267 23.925 27.1324C23.6195 27.4379 23.6196 27.9335 23.9252 28.2391L32.1031 36.4161C32.3043 36.6173 32.415 36.8848 32.415 37.1695C32.415 37.4547 32.3042 37.7225 32.1033 37.9234C31.6873 38.339 31.0108 38.3391 30.5954 37.9237L29.2158 36.544C29.2081 36.5361 29.2007 36.5281 29.1927 36.5202C29.1904 36.5179 29.1879 36.5159 29.1855 36.5136L22.8435 30.1717C22.5378 29.8661 22.0424 29.8661 21.7367 30.1717C21.4311 30.4773 21.4311 30.9728 21.7367 31.2784L28.099 37.6406C28.2935 37.84 28.4006 38.1037 28.4006 38.3835C28.4006 38.6682 28.2897 38.9357 28.0885 39.1369C27.6734 39.5524 26.9974 39.5524 26.5819 39.1369L19.6832 32.2381C19.3774 31.9324 18.882 31.9324 18.5764 32.2381C18.2707 32.5437 18.2707 33.0392 18.5764 33.3448L23.6901 38.4587C23.6916 38.4601 23.6927 38.4617 23.6942 38.4631C23.8953 38.6638 24.0059 38.9309 24.0059 39.2152C24.0059 39.4997 23.8951 39.7673 23.6931 39.9693C23.4922 40.1707 23.2248 40.2816 22.9399 40.2816C22.8711 40.2816 22.8038 40.2745 22.738 40.2621C22.8646 39.4091 22.6006 38.5088 21.9454 37.8535C21.4134 37.3216 20.706 37.0286 19.9537 37.0286C19.9327 37.0286 19.9119 37.0296 19.8909 37.0301C19.907 36.2885 19.6335 35.5417 19.0687 34.977C18.5366 34.4451 17.8294 34.1521 17.077 34.1521C17.0299 34.1521 16.9831 34.1532 16.9364 34.1555C16.974 33.3885 16.7007 32.6091 16.1162 32.0246C15.4048 31.3132 14.4047 31.0633 13.4898 31.2736L12.9286 30.7124C11.3839 29.1671 10.3563 27.2159 9.95633 25.0698C9.80981 24.2838 9.42977 23.5656 8.85738 22.9931L7.47782 21.6136L15.3264 13.765L17.2824 15.721C18.0342 16.4728 19.0578 16.8752 20.1063 16.8752C20.5758 16.8752 21.0506 16.7944 21.5079 16.6282C21.7298 16.5475 21.9592 16.4896 22.1916 16.4528L17.346 21.2985C16.7531 21.8913 16.4266 22.6795 16.4266 23.518C16.4266 24.3563 16.7531 25.1445 17.3459 25.7373C17.9578 26.3492 18.7613 26.6551 19.5652 26.655C20.369 26.655 21.1728 26.3489 21.7848 25.7373L24.2185 23.3036L24.8772 23.9628C24.8774 23.963 24.8775 23.9631 24.8777 23.9633L24.9051 23.9906L24.9314 24.017C24.9315 24.0171 24.9317 24.0172 24.9319 24.0173L24.9323 24.0178C24.9399 24.0253 24.9473 24.0324 24.9546 24.0395L34.1307 33.2155C34.332 33.4167 34.4427 33.6843 34.4427 33.9689C34.4427 34.254 34.332 34.5216 34.1304 34.723ZM39.0598 23.0485C38.5168 23.5916 38.1602 24.2661 38.0287 24.999C37.6382 27.1733 36.6059 29.149 35.0434 30.7122L34.442 31.3137L29.4912 26.3629C29.5988 26.3709 29.7069 26.3761 29.8157 26.3761C30.317 26.3761 30.8299 26.2883 31.3406 26.0794C31.7406 25.9157 31.9322 25.4587 31.7686 25.0588C31.6049 24.6588 31.1483 24.4671 30.748 24.6308C28.7338 25.4549 26.3191 23.1838 26.0502 22.922C26.0457 22.9176 26.0413 22.9133 26.0367 22.9091L26.0089 22.8814C26.0088 22.8813 26.0087 22.8813 26.0086 22.8812L25.9844 22.857C25.9843 22.857 25.9841 22.8568 25.9839 22.8567L25.3251 22.1974L26.0722 21.4502C26.3779 21.1445 26.3779 20.6491 26.0723 20.3434C25.7666 20.0379 25.2711 20.0378 24.9656 20.3434L23.6669 21.6421C23.6664 21.6426 23.6658 21.6431 23.6653 21.6435C23.6649 21.644 23.6644 21.6446 23.6639 21.6451L20.678 24.631C20.0643 25.2445 19.0662 25.2443 18.4527 24.631C18.1556 24.3338 17.9919 23.9387 17.9919 23.5184C17.9919 23.098 18.1556 22.7029 18.4528 22.4057L23.6066 17.2518C23.8933 16.9651 24.212 16.7129 24.5545 16.5017C25.3683 15.9987 26.3082 15.7329 27.2726 15.7329C28.0088 15.7329 28.7501 15.8927 29.4166 16.1952C30.9327 16.8831 32.7347 16.5626 33.9003 15.3972L34.9897 14.308L41.395 20.7133L39.0598 23.0485ZM43.4654 20.5707L35.0689 12.1742L38.7139 8.52923L47.1105 16.9258L43.4654 20.5707Z" fill="#707070"/>
<path d="M44.2538 18.3066C44.686 18.3066 45.0364 17.9563 45.0364 17.5241C45.0364 17.0919 44.686 16.7415 44.2538 16.7415C43.8216 16.7415 43.4713 17.0919 43.4713 17.5241C43.4713 17.9563 43.8216 18.3066 44.2538 18.3066Z" fill="#707070"/>
<path d="M5.12649 19.0798C5.55869 19.0798 5.90905 18.7295 5.90905 18.2973C5.90905 17.8651 5.55869 17.5147 5.12649 17.5147C4.6943 17.5147 4.34393 17.8651 4.34393 18.2973C4.34393 18.7295 4.6943 19.0798 5.12649 19.0798Z" fill="#707070"/>
</svg>
