<svg width="40" height="40" viewBox="0 0 40 40" fill="none" xmlns="http://www.w3.org/2000/svg">
<path d="M11.4365 34.8563C11.4365 33.6169 10.4288 32.6086 9.18976 32.6086C7.95105 32.6086 6.94336 33.6169 6.94336 34.8563C6.94336 36.0956 7.95105 37.1039 9.18976 37.1039C10.4285 37.1036 11.4365 36.0956 11.4365 34.8563ZM8.12408 34.8563C8.12408 34.2679 8.60229 33.7894 9.18976 33.7894C9.77753 33.7894 10.2557 34.2679 10.2557 34.8563C10.2557 35.4443 9.77753 35.9229 9.18976 35.9229C8.60229 35.9229 8.12408 35.4443 8.12408 34.8563Z" fill="#707070"/>
<path d="M38.606 36.5588H38.3926V29.4595C38.3926 28.6136 37.7048 27.9254 36.8591 27.9254H29.2139C28.858 27.9254 28.5309 28.0484 28.2703 28.2526C28.0093 28.0484 27.6819 27.9254 27.3251 27.9254H19.6802C18.8345 27.9254 18.1467 28.6136 18.1467 29.4595V36.5588H17.0667V30.195C17.0667 29.4089 16.4276 28.7695 15.6418 28.7695H12.4393V27.2076H13.4851C14.2538 27.2076 14.8792 26.5808 14.8792 25.8109V21.3046C14.8792 20.5356 14.2538 19.9103 13.4851 19.9103H11.1508V16.5747C11.1508 16.2488 10.8865 15.9845 10.5603 15.9845C10.2344 15.9845 9.97009 16.2488 9.97009 16.5747V19.91H8.52722V9.97192C8.7439 10.0015 8.96484 10.0183 9.18976 10.0183C9.45526 10.0183 9.71558 9.99603 9.96979 9.95514V13.8721C9.96979 14.198 10.2341 14.4623 10.5603 14.4623C10.8865 14.4623 11.1508 14.198 11.1508 13.8721V9.60449C11.7551 9.33777 12.2952 8.95172 12.7414 8.47565L24.8154 5.01251V6.7395H23.0588C22.0239 6.7395 21.1819 7.58179 21.1819 8.61694V13.0167C21.1819 13.9743 21.9025 14.7662 22.8293 14.8798V21.2912C22.8293 21.304 22.8296 21.3165 22.8305 21.329C22.89 22.2604 23.5809 22.9364 24.4736 22.9364H33.0087C33.9014 22.9364 34.5926 22.2604 34.6521 21.329C34.6527 21.3165 34.653 21.304 34.653 21.2912V19.7827C34.653 19.4565 34.3887 19.1922 34.0628 19.1922C33.7366 19.1922 33.4723 19.4565 33.4723 19.7827V21.2695C33.461 21.4026 33.3936 21.7554 33.0087 21.7554H24.4736C24.0887 21.7554 24.0216 21.4026 24.01 21.2695V14.6344C24.0109 14.6341 24.0115 14.6335 24.0121 14.6332C24.4955 14.3466 24.8398 13.8495 24.9182 13.269C24.9185 13.2657 24.9191 13.2623 24.9194 13.2587C24.9237 13.2251 24.9274 13.1912 24.9298 13.1573C24.9304 13.1491 24.931 13.1409 24.9316 13.1326C24.9338 13.0942 24.9356 13.0557 24.9356 13.0167V12.4066H26.0553V13.6481C26.0553 14.2499 26.5445 14.7394 27.146 14.7394H30.2057C30.8072 14.7394 31.2964 14.2499 31.2964 13.6481V12.4066H32.5467V13.0167C32.5467 13.0557 32.5482 13.0942 32.5507 13.1326C32.5513 13.1409 32.5519 13.1491 32.5525 13.1573C32.5549 13.1912 32.5583 13.2251 32.5629 13.2587C32.5632 13.262 32.5638 13.2657 32.5641 13.269C32.6425 13.8495 32.9868 14.3466 33.4702 14.6332C33.4711 14.6335 33.4717 14.6341 33.4723 14.6344V17.0798C33.4723 17.406 33.7366 17.6703 34.0628 17.6703C34.3887 17.6703 34.653 17.406 34.653 17.0798V14.8798C35.5801 14.7662 36.3004 13.9743 36.3004 13.0167V8.61694C36.3004 7.58179 35.4584 6.7395 34.4235 6.7395H32.6672V4.00452C32.6672 1.83929 30.9067 0.0778198 28.7402 0.0778198C27.7744 0.0778198 26.8893 0.429382 26.2048 1.01044H11.7694C11.0208 0.541077 10.1367 0.26825 9.18976 0.26825C6.50299 0.26825 4.31732 2.45544 4.31732 5.14343C4.31732 7.17896 5.57129 8.92609 7.34619 9.65485V19.91H5.01404C4.2453 19.91 3.62 20.5356 3.62 21.3046V25.8109C3.62 26.5808 4.2453 27.2076 5.01404 27.2076H6.05988V28.7692H3.53729C2.75146 28.7692 2.11212 29.4089 2.11212 30.195V31.7136H1.36993C0.614319 31.7136 0 32.3285 0 33.0838V34.7101C0 35.4669 0.614319 36.0825 1.36963 36.0825H2.11212V38.4961C2.11212 39.2822 2.75146 39.9219 3.53729 39.9219H38.606C39.3747 39.9219 40 39.2963 40 38.5272V37.951C40 37.1832 39.3747 36.5588 38.606 36.5588ZM13.7057 6.97083C13.9349 6.40594 14.0622 5.78949 14.0622 5.14343C14.0622 5.03418 14.0573 4.92615 14.0503 4.81873H21.2082L13.7057 6.97083ZM30.1157 13.5587H27.2357V12.4066H30.1157V13.5587ZM32.5467 11.2256H24.9356V10.4947H32.5467V11.2256ZM34.4235 7.92053C34.8071 7.92053 35.1196 8.23303 35.1196 8.61694V13.0167C35.1196 13.4009 34.8071 13.7134 34.4235 13.7134C34.3289 13.7134 34.2386 13.6942 34.1562 13.66C34.1534 13.6588 34.1507 13.6575 34.1479 13.6563C34.1321 13.6496 34.1165 13.6417 34.1013 13.6337C34.0961 13.631 34.0903 13.6282 34.0851 13.6252C34.0735 13.6185 34.0619 13.6115 34.0506 13.6041C34.0433 13.5995 34.0359 13.595 34.0289 13.5904C34.0225 13.5855 34.0161 13.5806 34.0097 13.5757C33.8846 13.4818 33.793 13.3481 33.7518 13.1964C33.75 13.1897 33.7482 13.183 33.7466 13.1763C33.7439 13.1647 33.7415 13.1531 33.7393 13.1412C33.7372 13.1302 33.7357 13.1189 33.7341 13.1076C33.7329 13.0988 33.7317 13.0899 33.7308 13.0807C33.7289 13.0597 33.7277 13.0383 33.7277 13.017V9.90417C33.7277 9.57794 33.4631 9.31366 33.1372 9.31366H24.3451C24.0192 9.31366 23.7549 9.57794 23.7549 9.90417V13.017C23.7549 13.0383 23.7534 13.0597 23.7515 13.0807C23.7506 13.0899 23.7494 13.0988 23.7482 13.1079C23.7466 13.1189 23.7451 13.1302 23.743 13.1412C23.7408 13.1531 23.7384 13.1647 23.7357 13.1763C23.7341 13.183 23.7323 13.1897 23.7305 13.1961C23.6893 13.349 23.5965 13.4839 23.4698 13.5779C23.4644 13.5818 23.4592 13.5861 23.4537 13.5898C23.446 13.5953 23.4384 13.5999 23.4305 13.6047C23.4198 13.6118 23.4088 13.6185 23.3975 13.6249C23.392 13.6279 23.3862 13.631 23.3804 13.634C23.3655 13.642 23.3505 13.6493 23.335 13.656C23.3319 13.6575 23.3286 13.6588 23.3255 13.66C23.2434 13.6945 23.1531 13.7134 23.0588 13.7134C22.6749 13.7134 22.3627 13.4009 22.3627 13.0167V8.61694C22.3627 8.23303 22.6749 7.92053 23.0588 7.92053H34.4235ZM25.9961 4.27277C25.997 4.25964 25.9979 4.24622 25.9979 4.23279C25.9979 4.23126 25.9982 4.22974 25.9982 4.22852C25.9982 4.22333 25.9976 4.21814 25.9973 4.21295C25.997 4.20166 25.997 4.19006 25.9958 4.17847V4.00452C25.9958 3.24249 26.308 2.55219 26.8112 2.05414C26.8292 2.03888 26.846 2.0224 26.8622 2.00531C27.3538 1.54297 28.0151 1.25854 28.7421 1.25854C30.2551 1.25854 31.4862 2.49054 31.4862 4.00452V6.7395H25.9961V4.27277ZM25.2606 2.19147C25.0305 2.63153 24.881 3.12012 24.8331 3.638H13.8232C13.6517 3.11066 13.3932 2.62299 13.064 2.19147H25.2606ZM5.49835 5.14343C5.49835 3.10638 7.15424 1.44928 9.18976 1.44928C11.2253 1.44928 12.8815 3.10638 12.8815 5.14343C12.8815 7.18018 11.2253 8.83759 9.18976 8.83759C7.15424 8.83759 5.49835 7.18018 5.49835 5.14343ZM5.01404 26.0266C4.89838 26.0266 4.80072 25.9277 4.80072 25.8109V21.3046C4.80072 21.1868 4.89655 21.091 5.01404 21.091H13.4851C13.6026 21.091 13.6984 21.1868 13.6984 21.3046V25.8109C13.6984 25.9277 13.6008 26.0266 13.4851 26.0266H5.01404ZM11.2585 27.2076V28.7695H7.2406V27.2076H11.2585ZM1.36963 34.9014C1.2674 34.9014 1.18073 34.8138 1.18073 34.7101V33.0838C1.18073 32.9794 1.26556 32.8946 1.36963 32.8946H11.7737C11.8771 32.8946 11.9647 32.9813 11.9647 33.0838V34.7101C11.9647 34.8138 11.8771 34.9014 11.7737 34.9014H1.36963ZM15.8859 38.4961C15.8859 38.6288 15.7739 38.7408 15.6415 38.7408H3.53729C3.40485 38.7408 3.29285 38.6285 3.29285 38.4961V36.0825H11.7737C12.5302 36.0825 13.1458 35.4666 13.1458 34.7101V33.0838C13.1458 32.3282 12.5302 31.7136 11.7737 31.7136H3.29285V30.195C3.29285 30.0598 3.40271 29.95 3.53729 29.95H15.6415C15.7739 29.95 15.8859 30.0623 15.8859 30.195V38.4961ZM31.7505 29.1061H34.205V30.0143H31.7505V29.1061ZM28.8611 29.4595C28.8611 29.2648 29.0192 29.1061 29.2139 29.1061H30.5695V30.1575C30.5695 30.7297 31.0352 31.1954 31.6071 31.1954H34.3481C34.9203 31.1954 35.3857 30.7297 35.3857 30.1575V29.1061H36.8588C37.0535 29.1061 37.2119 29.2648 37.2119 29.4595V36.5588H28.8611V29.4595ZM22.2165 29.1061H24.6713V30.0143H22.2165V29.1061ZM19.3274 29.4595C19.3274 29.2648 19.4855 29.1061 19.6802 29.1061H21.0358V30.1575C21.0358 30.7297 21.5015 31.1954 22.0734 31.1954H24.8145C25.3867 31.1954 25.8521 30.7297 25.8521 30.1575V29.1061H27.3251C27.5177 29.1061 27.6804 29.2682 27.6804 29.4595V36.5588H19.3274V29.4595ZM38.8193 38.5272C38.8193 38.645 38.7234 38.7408 38.606 38.7408H17.0639C17.0804 38.6536 17.0889 38.5638 17.0889 38.4717V37.7396H38.606C38.7216 37.7396 38.8193 37.8366 38.8193 37.951V38.5272Z" fill="#707070"/>
</svg>
