<svg width="42" height="42" viewBox="0 0 42 42" fill="none" xmlns="http://www.w3.org/2000/svg">
<g clip-path="url(#clip0)">
<path d="M6.30004 42H32.9C33.2866 42 33.6 41.6866 33.6 41.3V31.768C34.2778 30.9767 36.4 28.1015 36.4 23.1C36.4 18.0985 34.2778 15.2233 33.6 14.4324V11.9C33.6 11.5134 33.2866 11.2 32.9 11.2H27.5899L31.995 6.79492C32.2684 6.52183 32.2684 6.07852 31.995 5.80508L31.7899 5.6L33.395 3.99492C33.6684 3.72148 33.6684 3.27852 33.395 3.00508L30.595 0.205078C30.3219 -0.0683594 29.8785 -0.0683594 29.6051 0.205078L28 1.81016L27.795 1.60508C27.5215 1.33164 27.0785 1.33164 26.8051 1.60508L15.6051 12.8051C15.3317 13.0785 15.3317 13.5218 15.6051 13.7949L15.8102 14L13.5051 16.3051C13.2317 16.5785 13.2317 17.0218 13.5051 17.2949L16.3051 20.0949C16.5786 20.3684 17.0215 20.3684 17.295 20.0949L19.6 17.7898L19.8051 17.9949C20.0785 18.2684 20.5219 18.2684 20.795 17.9949L22.573 16.2169C24.0885 17.2286 26.1287 16.8937 27.2409 15.4502C28.1415 15.9223 31.5 18.0233 31.5 23.1C31.5 27.703 27.8578 30.3071 27.0984 30.8H23.8V25.9C23.8 25.5134 23.4866 25.2 23.1 25.2H10.5C10.1135 25.2 9.80004 25.5134 9.80004 25.9V28.7C9.80004 29.0866 10.1135 29.4 10.5 29.4H19.6V30.8H17.5C17.1135 30.8 16.8 31.1134 16.8 31.5V36.4H9.10004C7.16786 36.4024 5.60243 37.9682 5.60004 39.9V41.3C5.60004 41.6866 5.91346 42 6.30004 42ZM30.1 1.68984L31.9102 3.5L30.8 4.61016L28.9899 2.8L30.1 1.68984ZM16.8 18.6102L14.9899 16.8L16.8 14.9898L18.6102 16.8L16.8 18.6102ZM24.5 15.4C23.3403 15.4 22.4 14.4597 22.4 13.3C22.4 12.1403 23.3403 11.2 24.5 11.2C25.6597 11.2 26.6 12.1403 26.6 13.3C26.5987 14.4594 25.6594 15.3986 24.5 15.4ZM26.4271 10.3831C25.0414 9.46333 23.1995 9.64756 22.0237 10.8237C20.8476 11.9995 20.6634 13.8414 21.5831 15.2271L20.3 16.5102L17.0899 13.3L27.3 3.08984L30.5102 6.3L26.4271 10.3831ZM27.9293 14C28.0236 13.5382 28.0236 13.0621 27.9293 12.6H32.2V14H27.9293ZM32.9 23.1C32.9978 20.1698 31.7868 17.3479 29.5955 15.4H32.5832C34.2399 17.6176 35.0923 20.3335 35 23.1C35.0923 25.8665 34.2399 28.5824 32.5835 30.8H29.3706C31.5862 28.85 32.8689 26.0511 32.9 23.1ZM11.2 28V26.6H22.4V28H11.2ZM22.4 29.4V34.3C22.4 34.6866 22.0866 35 21.7 35C21.3135 35 21 34.6866 21 34.3V29.4H22.4ZM18.2 32.2H19.6V34.3C19.6 35.4597 20.5403 36.4 21.7 36.4C22.8598 36.4 23.8 35.4597 23.8 34.3V32.2H32.2V36.4H18.2V32.2ZM7.00004 39.9C7.0014 38.7406 7.94066 37.8014 9.10004 37.8H32.2V40.6H7.00004V39.9Z" fill="#707070"/>
</g>
<defs>
<clipPath id="clip0">
<rect width="42" height="42" fill="white" transform="matrix(1 0 0 -1 0 42)"/>
</clipPath>
</defs>
</svg>
