<svg width="40" height="40" viewBox="0 0 40 40" fill="none" xmlns="http://www.w3.org/2000/svg">
<g clip-path="url(#clip0)">
<path d="M37.9999 26.6666H31.5411L37.1317 23.4384C37.5925 23.1747 37.9294 22.7386 38.0679 22.226C38.2068 21.7133 38.1357 21.1667 37.8705 20.7068L33.2025 12.6239C32.9367 12.1643 32.4988 11.8292 31.9858 11.6928C31.4728 11.5536 30.9253 11.6269 30.4669 11.8958L24.8752 15.1248L28.1024 9.53583C28.3704 9.07623 28.4439 8.52875 28.3072 8.01453C28.1705 7.50031 27.8342 7.06177 27.3734 6.79626L19.2917 2.1283C18.8318 1.86401 18.2858 1.79352 17.774 1.93207C17.2623 2.07062 16.8265 2.40662 16.5625 2.86652L13.3334 8.46008V2.00012C13.3322 0.895996 12.4374 0.0012207 11.3333 0H2.00012C0.895996 0.0012207 0.0012207 0.895996 0 2.00012V37.9999C0.0012207 39.104 0.895996 39.9988 2.00012 40H37.9999C39.104 39.9988 39.9988 39.104 40 37.9999V28.6667C39.9988 27.5626 39.104 26.6678 37.9999 26.6666ZM2.00012 26.6666C1.77246 26.669 1.54694 26.7105 1.33331 26.7896V20H6.67053L2.82166 26.6666H2.00012ZM28.8745 26.6666H19.758L16.7038 21.3831L23.631 17.3831L28.9618 26.6165L28.8745 26.6666ZM22.565 16.4587L14.6725 21.0165L9.38568 17.9639L13.3841 11.0385L22.6169 16.369L22.565 16.4587ZM12.0001 10.769L7.90344 17.865C7.90131 17.8683 7.89795 17.8699 7.89581 17.8735L7.89215 17.8842L7.44049 18.6667H1.33331V10.6668H12.0001V10.769ZM8.71918 19.1187L13.3392 21.7865L4.888 26.6666H4.36127L8.71918 19.1187ZM14.9973 22.3688L15.0058 22.3639L15.5493 22.0499L18.2181 26.6666H7.55463L14.9973 22.3688ZM12.0001 27.9999H20V38.6667H12.0001V27.9999ZM21.3333 27.9999H29.3332V38.6667H21.3333V27.9999ZM31.1362 13.049C31.2881 12.9593 31.4703 12.9346 31.6409 12.9803C31.813 13.0267 31.9598 13.139 32.0496 13.2932L36.7148 21.3718C36.8036 21.5253 36.8274 21.7078 36.7807 21.879C36.734 22.0499 36.6211 22.1954 36.4667 22.2824L30.1163 25.9491L24.7858 16.716L31.1362 13.049ZM17.7185 3.53119C17.8058 3.37799 17.9507 3.26569 18.1213 3.2193C18.2916 3.17291 18.4735 3.19611 18.6267 3.284L26.7041 7.94922C26.8594 8.03864 26.973 8.18604 27.0197 8.35907C27.0654 8.53088 27.0401 8.71368 26.9492 8.86658L23.284 15.2142L14.0509 9.88373L17.7185 3.53119ZM2.00012 1.33331H11.3333C11.7014 1.33392 11.9995 1.63208 12.0001 2.00012V9.33319H1.33331V2.00012C1.33392 1.63208 1.63208 1.33392 2.00012 1.33331ZM1.33331 37.9999V28.6667C1.33392 28.2986 1.63208 28.0005 2.00012 27.9999H10.6668V38.6667H2.00012C1.63208 38.6661 1.33392 38.3679 1.33331 37.9999ZM38.6667 37.9999C38.6661 38.3679 38.3679 38.6661 37.9999 38.6667H30.6668V27.9999H37.9999C38.3679 28.0005 38.6661 28.2986 38.6667 28.6667V37.9999Z" fill="#707070"/>
<path d="M6.66656 30.6668C5.19379 30.6668 3.99994 31.8607 3.99994 33.3334C3.99994 34.8062 5.19379 36.0001 6.66656 36.0001C8.13934 36.0001 9.33319 34.8062 9.33319 33.3334C9.33167 31.8613 8.13873 30.6683 6.66656 30.6668ZM6.66656 34.6667C5.93018 34.6667 5.33325 34.0698 5.33325 33.3334C5.33325 32.597 5.93018 32.0001 6.66656 32.0001C7.40295 32.0001 7.99988 32.597 7.99988 33.3334C7.99927 34.0695 7.40265 34.6658 6.66656 34.6667Z" fill="#707070"/>
</g>
<defs>
<clipPath id="clip0">
<rect width="40" height="40" fill="white"/>
</clipPath>
</defs>
</svg>
