<svg width="40" height="40" viewBox="0 0 40 40" fill="none" xmlns="http://www.w3.org/2000/svg">
<path d="M3.22581 3.87097H22.5806V8.3871C22.5806 8.74401 22.8689 9.03226 23.2258 9.03226H27.7419V14.1935H29.0323V8.3871C29.0323 8.20848 28.9595 8.04719 28.8426 7.93032L23.6832 2.77092C23.5657 2.65341 23.4044 2.58065 23.2258 2.58065H5.80645V1.29032H30.3226V15.4839H31.6129V0.645161C31.6129 0.288243 31.3247 0 30.9677 0H5.16129C4.80437 0 4.51613 0.288243 4.51613 0.645161V2.58065H2.58065C2.22373 2.58065 1.93549 2.86889 1.93549 3.22581V39.3548C1.93549 39.7118 2.22373 40 2.58065 40H24.5161V38.7097H3.22581V3.87097ZM23.871 4.78327L26.8296 7.74194H23.871V4.78327Z" fill="#707070"/>
<path d="M37.4193 19.3549H36.4478C33.567 19.3549 30.8575 18.086 29.0137 15.8736L28.8832 15.7167C28.6388 15.4218 28.136 15.4218 27.8916 15.7167L27.7611 15.8729C25.9167 18.086 23.2072 19.3549 20.3264 19.3549H19.3548C18.9979 19.3549 18.7097 19.6431 18.7097 20V30.4489C18.7097 32.9896 20.08 35.3509 22.2858 36.611L28.067 39.915C28.1659 39.9717 28.2768 40 28.3871 40C28.4973 40 28.6082 39.9717 28.7072 39.915L34.4884 36.611C36.6942 35.3509 38.0645 32.9896 38.0645 30.4489V20C38.0645 19.6431 37.7763 19.3549 37.4193 19.3549ZM36.7742 30.4489C36.7742 32.5277 35.6537 34.4594 33.8483 35.4902L28.3871 38.6124L22.9259 35.4911C21.1205 34.4594 20 32.5277 20 30.4489V20.6452H20.3264C23.405 20.6452 26.3124 19.3659 28.3871 17.1154C30.4612 19.3659 33.3691 20.6452 36.4478 20.6452H36.7742V30.4489Z" fill="#707070"/>
<path d="M28.3871 21.2903C24.4742 21.2903 21.2903 24.4743 21.2903 28.3871C21.2903 32.3 24.4742 35.4839 28.3871 35.4839C32.3 35.4839 35.4839 32.3 35.4839 28.3871C35.4839 24.4743 32.3 21.2903 28.3871 21.2903ZM28.3871 34.1936C25.1852 34.1936 22.5807 31.589 22.5807 28.3871C22.5807 25.1853 25.1852 22.5807 28.3871 22.5807C31.589 22.5807 34.1936 25.1853 34.1936 28.3871C34.1936 31.589 31.589 34.1936 28.3871 34.1936Z" fill="#707070"/>
<path d="M28.0793 30.3928L26.9078 29.2213L25.9955 30.1336L27.931 32.0691C28.0529 32.1916 28.2179 32.2581 28.3871 32.2581C28.4394 32.2581 28.4923 32.2518 28.5446 32.2389C28.7651 32.1831 28.9393 32.0155 29.0052 31.7982L30.9407 25.3465L29.7045 24.9761L28.0793 30.3928Z" fill="#707070"/>
<path d="M4.51613 10.3226H21.2903V11.6129H4.51613V10.3226Z" fill="#707070"/>
<path d="M4.51613 12.9032H21.2903V14.1935H4.51613V12.9032Z" fill="#707070"/>
<path d="M4.51613 15.4839H21.2903V16.7742H4.51613V15.4839Z" fill="#707070"/>
<path d="M4.51613 18.0645H17.4194V19.3548H4.51613V18.0645Z" fill="#707070"/>
<path d="M4.51613 20.6451H17.4194V21.9355H4.51613V20.6451Z" fill="#707070"/>
<path d="M4.51613 23.2258H17.4194V24.5162H4.51613V23.2258Z" fill="#707070"/>
<path d="M4.51613 30.9678H17.4194V32.2581H4.51613V30.9678Z" fill="#707070"/>
<path d="M4.51613 33.5484H17.4194V34.8387H4.51613V33.5484Z" fill="#707070"/>
<path d="M4.51613 36.129H17.4194V37.4194H4.51613V36.129Z" fill="#707070"/>
<path d="M5.16129 5.16132H6.45161V6.45164H5.16129V5.16132Z" fill="#707070"/>
<path d="M7.74193 5.16132H9.03225V6.45164H7.74193V5.16132Z" fill="#707070"/>
<path d="M10.3226 5.16132H11.6129V6.45164H10.3226V5.16132Z" fill="#707070"/>
<path d="M12.9032 5.16132H21.2903V6.45164H12.9032V5.16132Z" fill="#707070"/>
</svg>
