<svg width="24" height="24" viewBox="0 0 24 24" fill="none" xmlns="http://www.w3.org/2000/svg">
<path d="M21 10.5V7.5H19.5V10.5H16.5V12H19.5V15H21V12H24V10.5H21Z" fill="white"/>
<path d="M7.5 10.5V13.5H11.7435C11.124 15.246 9.456 16.5 7.5 16.5C5.019 16.5 3 14.481 3 12C3 9.519 5.019 7.5 7.5 7.5C8.5755 7.5 9.6105 7.8855 10.4145 8.586L12.3855 6.324C11.0355 5.148 9.3015 4.5 7.5 4.5C3.3645 4.5 0 7.8645 0 12C0 16.1355 3.3645 19.5 7.5 19.5C11.6355 19.5 15 16.1355 15 12V10.5H7.5Z" fill="white"/>
</svg>
