<svg width="29" height="29" viewBox="0 0 29 29" fill="none" xmlns="http://www.w3.org/2000/svg">
<path d="M8.54252 18.6577C8.54252 18.1761 8.20834 17.8889 7.6187 17.8889C7.37793 17.8889 7.21487 17.9127 7.12958 17.9354V19.4806C7.23057 19.5034 7.35471 19.5109 7.52584 19.5109C8.15433 19.5109 8.54252 19.1934 8.54252 18.6577Z" fill="#FF5E3A"/>
<path d="M12.1927 17.905C11.9286 17.905 11.758 17.9278 11.657 17.9515V21.3737C11.758 21.3974 11.9211 21.3974 12.0685 21.3974C13.1397 21.405 13.8383 20.8153 13.8383 19.5659C13.8459 18.4794 13.2093 17.905 12.1927 17.905Z" fill="#FF5E3A"/>
<path d="M18.9743 0H7.32674C5.62514 0 4.24022 1.38588 4.24022 3.08652V14.4999H3.93876C3.25198 14.4999 2.69501 15.0564 2.69501 15.7437V23.2866C2.69501 23.9739 3.25192 24.5303 3.93876 24.5303H4.24022V25.9134C4.24022 27.6159 5.62514 28.9999 7.32674 28.9999H23.2194C24.9199 28.9999 26.305 27.6159 26.305 25.9134V7.30498L18.9743 0ZM5.95788 17.105C6.32238 17.0434 6.83473 16.9969 7.55657 16.9969C8.28605 16.9969 8.80598 17.1362 9.15532 17.4159C9.48902 17.6794 9.71422 18.1145 9.71422 18.6265C9.71422 19.1384 9.54358 19.5735 9.23309 19.8683C8.82925 20.2485 8.23204 20.4191 7.53341 20.4191C7.37793 20.4191 7.23857 20.4114 7.12958 20.3963V22.2667H5.95788V17.105ZM23.2194 27.1097H7.32674C6.66788 27.1097 6.13135 26.5732 6.13135 25.9134V24.5303H20.9465C21.6334 24.5303 22.1903 23.9739 22.1903 23.2866V15.7437C22.1903 15.0564 21.6334 14.4999 20.9465 14.4999H6.13135V3.08652C6.13135 2.42862 6.66794 1.89209 7.32674 1.89209L18.2672 1.88066V5.92463C18.2672 7.10582 19.2256 8.06513 20.4077 8.06513L24.3692 8.05376L24.4137 25.9134C24.4137 26.5732 23.8782 27.1097 23.2194 27.1097ZM10.4697 22.243V17.105C10.9043 17.0358 11.4707 16.9969 12.0685 16.9969C13.0619 16.9969 13.7061 17.1752 14.2109 17.5552C14.7541 17.9591 15.0953 18.6028 15.0953 19.527C15.0953 20.528 14.7308 21.2191 14.226 21.6456C13.6752 22.1035 12.8368 22.3206 11.8125 22.3206C11.1991 22.3206 10.7645 22.2818 10.4697 22.243ZM18.9403 19.201V20.1631H17.0618V22.2667H15.8745V17.0358H19.072V18.0055H17.0618V19.201H18.9403Z" fill="#FF5E3A"/>
</svg>
