<svg width="18" height="18" viewBox="0 0 18 18" fill="none" xmlns="http://www.w3.org/2000/svg">
<g clip-path="url(#clip0)">
<path d="M18 3.41936C17.3375 3.71292 16.6267 3.91201 15.8798 4.00089C16.6424 3.54421 17.2262 2.81986 17.5029 1.95939C16.7875 2.3823 15.9979 2.68939 15.1565 2.85586C14.4828 2.13713 13.5245 1.68945 12.4615 1.68945C10.4223 1.68945 8.76885 3.34289 8.76885 5.381C8.76885 5.67006 8.80147 5.95238 8.86447 6.22235C5.79606 6.06823 3.07521 4.59815 1.25418 2.3643C0.935855 2.90871 0.754767 3.54307 0.754767 4.22021C0.754767 5.50135 1.40715 6.63176 2.39697 7.29311C1.79183 7.27288 1.22268 7.10641 0.724414 6.8297V6.87582C0.724414 8.66423 1.99768 10.1568 3.68597 10.4965C3.37665 10.5798 3.05047 10.6259 2.71303 10.6259C2.47459 10.6259 2.244 10.6023 2.01791 10.5573C2.48806 12.0251 3.85132 13.0925 5.46653 13.1218C4.20338 14.1116 2.61068 14.6999 0.880767 14.6999C0.582708 14.6999 0.28912 14.6819 6.10352e-05 14.6492C1.63438 15.6987 3.57465 16.3106 5.66 16.3106C12.4526 16.3106 16.1655 10.6844 16.1655 5.80506L16.1531 5.32703C16.8786 4.80959 17.5062 4.15948 18 3.41936Z" fill="white"/>
</g>
<defs>
<clipPath id="clip0">
<rect width="18" height="18" fill="white"/>
</clipPath>
</defs>
</svg>
