<svg width="23" height="23" viewBox="0 0 23 23" fill="none" xmlns="http://www.w3.org/2000/svg">
<g clip-path="url(#clip0)">
<path d="M22.8781 16.7898C22.8502 16.7298 22.8243 16.68 22.8001 16.6401C22.4011 15.9214 21.6385 15.0393 20.5129 13.9934L20.4891 13.9695L20.4772 13.9577L20.4652 13.9457H20.4531C19.9422 13.4587 19.6187 13.1312 19.4832 12.9636C19.2353 12.6442 19.1798 12.321 19.3153 11.9934C19.411 11.746 19.7705 11.2233 20.3931 10.4249C20.7205 10.0017 20.9798 9.66254 21.1714 9.40702C22.5526 7.57074 23.1514 6.39733 22.9677 5.88633L22.8964 5.76692C22.8484 5.69503 22.7247 5.62926 22.5253 5.56928C22.3255 5.50943 22.0701 5.49953 21.7587 5.53942L18.3099 5.56324C18.2541 5.54344 18.1743 5.54529 18.0704 5.56928C17.9665 5.59327 17.9146 5.60531 17.9146 5.60531L17.8546 5.6353L17.8069 5.67133C17.767 5.69515 17.7231 5.73706 17.6752 5.79695C17.6275 5.85664 17.5876 5.92668 17.5557 6.0065C17.1802 6.9725 16.7533 7.87063 16.2742 8.70086C15.9788 9.19592 15.7075 9.62496 15.4598 9.98823C15.2123 10.3514 15.0047 10.6189 14.8372 10.7904C14.6695 10.9621 14.518 11.0996 14.3821 11.2035C14.2463 11.3075 14.1426 11.3514 14.0709 11.3353C13.9989 11.3193 13.9312 11.3033 13.8671 11.2874C13.7554 11.2155 13.6655 11.1177 13.5978 10.994C13.5298 10.8703 13.484 10.7145 13.46 10.5269C13.4362 10.3392 13.4221 10.1777 13.4181 10.0419C13.4143 9.90631 13.4161 9.71451 13.4242 9.46704C13.4325 9.21945 13.4362 9.05193 13.4362 8.9641C13.4362 8.66068 13.4421 8.33138 13.454 7.97612C13.4661 7.62086 13.4758 7.33938 13.484 7.13201C13.4921 6.92443 13.4959 6.70482 13.4959 6.47329C13.4959 6.24176 13.4818 6.06019 13.454 5.9284C13.4265 5.79678 13.3842 5.66902 13.3286 5.54516C13.2726 5.42143 13.1906 5.32572 13.0831 5.25777C12.9753 5.1899 12.8414 5.13605 12.6819 5.09603C12.2588 5.00028 11.7199 4.94848 11.0651 4.94042C9.58029 4.92449 8.62621 5.02037 8.20308 5.22795C8.03543 5.31565 7.88372 5.43548 7.74808 5.58707C7.60434 5.76277 7.58429 5.85865 7.68806 5.87442C8.16714 5.94619 8.50629 6.11786 8.7059 6.38928L8.77783 6.5331C8.83378 6.63687 8.88965 6.82058 8.94556 7.08398C9.00139 7.34739 9.03742 7.63877 9.05327 7.95796C9.09312 8.54085 9.09312 9.0398 9.05327 9.45488C9.0133 9.87012 8.97555 10.1934 8.93952 10.4249C8.90349 10.6564 8.84964 10.844 8.77783 10.9877C8.7059 11.1314 8.65804 11.2192 8.63405 11.2511C8.6101 11.283 8.59014 11.3031 8.57428 11.311C8.47051 11.3507 8.36259 11.371 8.2509 11.371C8.13903 11.371 8.00339 11.315 7.84375 11.2032C7.68416 11.0914 7.51852 10.9378 7.34685 10.7422C7.17517 10.5465 6.98156 10.2731 6.76593 9.92183C6.55047 9.5706 6.32691 9.15549 6.09538 8.67649L5.90383 8.32912C5.78408 8.10564 5.6205 7.78024 5.41292 7.35322C5.20522 6.92602 5.02163 6.5128 4.86204 6.11362C4.79824 5.94598 4.7024 5.81834 4.57468 5.73051L4.51475 5.69448C4.4749 5.66261 4.41094 5.62876 4.32319 5.59269C4.23532 5.55666 4.14363 5.53082 4.04775 5.51492L0.766558 5.53875C0.431262 5.53875 0.203761 5.61471 0.0839707 5.76642L0.0360294 5.83818C0.0120797 5.87815 0 5.94199 0 6.02986C0 6.11769 0.0239497 6.22549 0.071891 6.35312C0.550885 7.47888 1.07178 8.56459 1.63458 9.6104C2.19737 10.6562 2.68643 11.4987 3.10146 12.1369C3.51658 12.7757 3.9397 13.3786 4.37084 13.9452C4.80197 14.5121 5.08736 14.8753 5.22699 15.0349C5.36678 15.1948 5.47659 15.3144 5.55641 15.3942L5.85584 15.6815C6.04744 15.8732 6.3288 16.1027 6.70004 16.3701C7.07136 16.6376 7.48245 16.901 7.93351 17.1607C8.38465 17.42 8.90949 17.6315 9.50832 17.7952C10.1071 17.9589 10.6898 18.0247 11.2567 17.993H12.6339C12.9132 17.9688 13.1248 17.881 13.2686 17.7294L13.3162 17.6694C13.3483 17.6218 13.3783 17.5477 13.406 17.4481C13.434 17.3483 13.4479 17.2384 13.4479 17.1188C13.4397 16.7756 13.4658 16.4663 13.5256 16.1909C13.5853 15.9155 13.6533 15.708 13.7294 15.5682C13.8054 15.4285 13.8912 15.3106 13.9867 15.2151C14.0825 15.1193 14.1507 15.0613 14.1907 15.0414C14.2304 15.0213 14.2622 15.0076 14.2861 14.9995C14.4777 14.9356 14.7032 14.9974 14.9629 15.1852C15.2224 15.3728 15.4658 15.6045 15.6935 15.8798C15.921 16.1554 16.1944 16.4645 16.5137 16.8078C16.8332 17.1511 17.1125 17.4063 17.3519 17.5742L17.5914 17.7179C17.7512 17.8138 17.9588 17.9016 18.2143 17.9815C18.4694 18.0612 18.6929 18.0812 18.8848 18.0413L21.9503 17.9935C22.2535 17.9935 22.4894 17.9433 22.6568 17.8437C22.8245 17.7439 22.9241 17.634 22.9562 17.5144C22.9883 17.3947 22.99 17.2589 22.9623 17.107C22.9339 16.9556 22.9059 16.8497 22.8781 16.7898Z" fill="white"/>
</g>
<defs>
<clipPath id="clip0">
<rect width="23" height="23" fill="white" transform="matrix(1 0 0 -1 0 23)"/>
</clipPath>
</defs>
</svg>
